<svg width="22" height="37" viewBox="0 0 22 37" fill="none" xmlns="http://www.w3.org/2000/svg">
<path d="M20.4504 35.3341C20.7517 35.0334 20.9908 34.6763 21.1538 34.2831C21.3169 33.8899 21.4009 33.4685 21.4009 33.0428C21.4009 32.6172 21.3169 32.1957 21.1538 31.8025C20.9908 31.4094 20.7517 31.0522 20.4504 30.7516L7.84044 18.1416L20.4504 5.53156C21.0581 4.92389 21.3995 4.0997 21.3995 3.24032C21.3995 2.38093 21.0581 1.55674 20.4504 0.949062C19.8428 0.341384 19.0186 4.46687e-07 18.1592 5.21816e-07C17.2998 5.96946e-07 16.4756 0.341385 15.8679 0.949062L0.950441 15.8666C0.649154 16.1672 0.410125 16.5244 0.247035 16.9175C0.0839455 17.3107 5.23496e-07 17.7322 5.60707e-07 18.1578C5.97918e-07 18.5835 0.0839457 19.0049 0.247035 19.3981C0.410125 19.7913 0.649155 20.1484 0.950441 20.4491L15.8679 35.3666C17.1029 36.6016 19.1829 36.6016 20.4504 35.3341Z" fill="white"/>
</svg>
